<mxfile host="65bd71144e">
    <diagram id="E7Vz1fSN7FH2WpGceCUt" name="Page-1">
        <mxGraphModel dx="552" dy="491" grid="1" gridSize="10" guides="1" tooltips="1" connect="1" arrows="1" fold="1" page="1" pageScale="1" pageWidth="850" pageHeight="1100" math="0" shadow="0">
            <root>
                <mxCell id="0"/>
                <mxCell id="1" parent="0"/>
                <mxCell id="5" style="edgeStyle=none;html=1;entryX=0.4;entryY=0.1;entryDx=0;entryDy=0;entryPerimeter=0;" edge="1" parent="1" source="2" target="3">
                    <mxGeometry relative="1" as="geometry">
                        <Array as="points">
                            <mxPoint x="298" y="60"/>
                        </Array>
                    </mxGeometry>
                </mxCell>
                <mxCell id="2" value="Hello" style="rounded=0;whiteSpace=wrap;html=1;fillColor=#008a00;fontColor=#ffffff;strokeColor=#005700;" vertex="1" parent="1">
                    <mxGeometry x="50" y="30" width="120" height="60" as="geometry"/>
                </mxCell>
                <mxCell id="3" value="Wordl" style="ellipse;shape=cloud;whiteSpace=wrap;html=1;fillColor=#d80073;fontColor=#ffffff;strokeColor=#A50040;" vertex="1" parent="1">
                    <mxGeometry x="250" y="110" width="120" height="80" as="geometry"/>
                </mxCell>
                <mxCell id="6" value="" style="shape=internalStorage;whiteSpace=wrap;html=1;backgroundOutline=1;" vertex="1" parent="1">
                    <mxGeometry x="170" y="250" width="120" height="110" as="geometry"/>
                </mxCell>
            </root>
        </mxGraphModel>
    </diagram>
</mxfile>